<?xml version="1.0" encoding="iso-8859-1"?>
<!-- Generator: Adobe Illustrator 20.1.0, SVG Export Plug-In . SVG Version: 6.00 Build 0)  -->
<svg xmlns="http://www.w3.org/2000/svg" xmlns:xlink="http://www.w3.org/1999/xlink" version="1.1" id="&#1057;&#1083;&#1086;&#1081;_1" x="0px" y="0px" viewBox="0 0 64 64" style="enable-background:new 0 0 64 64;" xml:space="preserve">
<linearGradient id="SVGID_1__43603" gradientUnits="userSpaceOnUse" x1="26" y1="15.875" x2="26" y2="22.0622" spreadMethod="reflect">
	<stop offset="0" style="stop-color:#6DC7FF"/>
	<stop offset="1" style="stop-color:#E6ABFF"/>
</linearGradient>
<rect x="14" y="16" style="fill:url(#SVGID_1__43603);" width="24" height="6"/>
<linearGradient id="SVGID_2__43603" gradientUnits="userSpaceOnUse" x1="32" y1="7" x2="32" y2="56.3032" spreadMethod="reflect">
	<stop offset="0" style="stop-color:#1A6DFF"/>
	<stop offset="1" style="stop-color:#C822FF"/>
</linearGradient>
<path style="fill:url(#SVGID_2__43603);" d="M53,20h-7v-7c0-2.761-2.239-5-5-5H11c-2.761,0-5,2.239-5,5v38c0,2.761,2.239,5,5,5h30  c2.761,0,5-2.238,5-5v-5h7c2.761,0,5-2.238,5-5V25C58,22.239,55.761,20,53,20z M44,51c0,1.657-1.343,3-3,3h-3.382l-0.448-0.895  C36.832,52.428,36.14,52,35.383,52H16.616c-0.756,0-1.448,0.427-1.786,1.104L14.382,54H11c-1.657,0-3-1.343-3-3V13  c0-1.657,1.343-3,3-3h30c1.657,0,3,1.343,3,3v7h-4v-3c0-1.657-1.343-3-3-3H15c-1.657,0-3,1.343-3,3v4c0,1.657,1.343,3,3,3h17.101  C32.035,24.5,32,24.658,32,25v16c0,2.761,2.239,5,5,5h7V51z M38,17v3h-1c-1.627,0-3.061,1-3.974,2H15c-0.552,0-1-0.448-1-1v-4  c0-0.552,0.448-1,1-1h22C37.552,16,38,16.448,38,17z M56,41c0,1.657-1.343,3-3,3h-7h-2h-7c-1.657,0-3-1.343-3-3V25  c0-1.657,1.343-3,3-3h16c1.657,0,3,1.343,3,3V41z"/>
<linearGradient id="SVGID_3__43603" gradientUnits="userSpaceOnUse" x1="40" y1="7" x2="40" y2="56.3032" spreadMethod="reflect">
	<stop offset="0" style="stop-color:#1A6DFF"/>
	<stop offset="1" style="stop-color:#C822FF"/>
</linearGradient>
<polygon style="fill:url(#SVGID_3__43603);" points="41,24 39,24 39,27 36,27 36,29 39,29 39,32 41,32 41,29 44,29 44,27 41,27 "/>
<linearGradient id="SVGID_4__43603" gradientUnits="userSpaceOnUse" x1="40" y1="7" x2="40" y2="56.3032" spreadMethod="reflect">
	<stop offset="0" style="stop-color:#1A6DFF"/>
	<stop offset="1" style="stop-color:#C822FF"/>
</linearGradient>
<rect x="36" y="37" style="fill:url(#SVGID_4__43603);" width="8" height="2"/>
<linearGradient id="SVGID_5__43603" gradientUnits="userSpaceOnUse" x1="50" y1="7" x2="50" y2="56.3032" spreadMethod="reflect">
	<stop offset="0" style="stop-color:#1A6DFF"/>
	<stop offset="1" style="stop-color:#C822FF"/>
</linearGradient>
<rect x="46" y="27" style="fill:url(#SVGID_5__43603);" width="8" height="2"/>
<linearGradient id="SVGID_6__43603" gradientUnits="userSpaceOnUse" x1="50" y1="7" x2="50" y2="56.3032" spreadMethod="reflect">
	<stop offset="0" style="stop-color:#1A6DFF"/>
	<stop offset="1" style="stop-color:#C822FF"/>
</linearGradient>
<rect x="49" y="24" style="fill:url(#SVGID_6__43603);" width="2" height="2"/>
<linearGradient id="SVGID_7__43603" gradientUnits="userSpaceOnUse" x1="50" y1="7" x2="50" y2="56.3032" spreadMethod="reflect">
	<stop offset="0" style="stop-color:#1A6DFF"/>
	<stop offset="1" style="stop-color:#C822FF"/>
</linearGradient>
<rect x="49" y="30" style="fill:url(#SVGID_7__43603);" width="2" height="2"/>
<linearGradient id="SVGID_8__43603" gradientUnits="userSpaceOnUse" x1="50" y1="7.0002" x2="50" y2="56.3034" spreadMethod="reflect">
	<stop offset="0" style="stop-color:#1A6DFF"/>
	<stop offset="1" style="stop-color:#C822FF"/>
</linearGradient>
<polygon style="fill:url(#SVGID_8__43603);" points="52.121,34.465 50,36.586 47.879,34.465 46.465,35.879 48.586,38 46.465,40.121   47.879,41.535 50,39.414 52.121,41.535 53.535,40.121 51.414,38 53.535,35.879 "/>
<linearGradient id="SVGID_9__43603" gradientUnits="userSpaceOnUse" x1="16" y1="7" x2="16" y2="56.3032" spreadMethod="reflect">
	<stop offset="0" style="stop-color:#1A6DFF"/>
	<stop offset="1" style="stop-color:#C822FF"/>
</linearGradient>
<path style="fill:url(#SVGID_9__43603);" d="M20,30c0-1.105-0.895-2-2-2h-4c-1.105,0-2,0.895-2,2v4c0,1.105,0.895,2,2,2h4  c1.105,0,2-0.895,2-2V30z M18,34h-4v-4h4V34z"/>
<linearGradient id="SVGID_10__43603" gradientUnits="userSpaceOnUse" x1="26" y1="7" x2="26" y2="56.3032" spreadMethod="reflect">
	<stop offset="0" style="stop-color:#1A6DFF"/>
	<stop offset="1" style="stop-color:#C822FF"/>
</linearGradient>
<path style="fill:url(#SVGID_10__43603);" d="M30,30c0-1.105-0.895-2-2-2h-4c-1.105,0-2,0.895-2,2v4c0,1.105,0.895,2,2,2h4  c1.105,0,2-0.895,2-2V30z M28,34h-4v-4h4V34z"/>
<linearGradient id="SVGID_11__43603" gradientUnits="userSpaceOnUse" x1="16" y1="7" x2="16" y2="56.3032" spreadMethod="reflect">
	<stop offset="0" style="stop-color:#1A6DFF"/>
	<stop offset="1" style="stop-color:#C822FF"/>
</linearGradient>
<path style="fill:url(#SVGID_11__43603);" d="M20,40c0-1.105-0.895-2-2-2h-4c-1.105,0-2,0.895-2,2v4c0,1.105,0.895,2,2,2h4  c1.105,0,2-0.895,2-2V40z M18,44h-4v-4h4V44z"/>
<linearGradient id="SVGID_12__43603" gradientUnits="userSpaceOnUse" x1="26" y1="7" x2="26" y2="56.3032" spreadMethod="reflect">
	<stop offset="0" style="stop-color:#1A6DFF"/>
	<stop offset="1" style="stop-color:#C822FF"/>
</linearGradient>
<path style="fill:url(#SVGID_12__43603);" d="M30,40c0-1.105-0.895-2-2-2h-4c-1.105,0-2,0.895-2,2v4c0,1.105,0.895,2,2,2h4  c1.105,0,2-0.895,2-2V40z M28,44h-4v-4h4V44z"/>
<linearGradient id="SVGID_13__43603" gradientUnits="userSpaceOnUse" x1="18" y1="7" x2="18" y2="56.3032" spreadMethod="reflect">
	<stop offset="0" style="stop-color:#1A6DFF"/>
	<stop offset="1" style="stop-color:#C822FF"/>
</linearGradient>
<rect x="16" y="18" style="fill:url(#SVGID_13__43603);" width="4" height="2"/>
<linearGradient id="SVGID_14__43603" gradientUnits="userSpaceOnUse" x1="24" y1="7" x2="24" y2="56.3032" spreadMethod="reflect">
	<stop offset="0" style="stop-color:#1A6DFF"/>
	<stop offset="1" style="stop-color:#C822FF"/>
</linearGradient>
<rect x="22" y="18" style="fill:url(#SVGID_14__43603);" width="4" height="2"/>
<linearGradient id="SVGID_15__43603" gradientUnits="userSpaceOnUse" x1="30" y1="7" x2="30" y2="56.3032" spreadMethod="reflect">
	<stop offset="0" style="stop-color:#1A6DFF"/>
	<stop offset="1" style="stop-color:#C822FF"/>
</linearGradient>
<rect x="28" y="18" style="fill:url(#SVGID_15__43603);" width="4" height="2"/>
</svg>
